<svg width="56" height="56" viewBox="0 0 56 56" fill="none" xmlns="http://www.w3.org/2000/svg">
<path d="M27.86 7C25.4077 7.03255 23.0671 8.03075 21.346 9.77804C19.6249 11.5253 18.6622 13.8808 18.6667 16.3333C18.542 19.742 18.2877 23.5025 16.9472 26.1304C16.6852 26.6441 16.8207 27.2994 17.3258 27.5775C22.7016 30.5374 27.2149 30.3842 27.9079 30.3402C27.9716 30.3362 28.0285 30.3362 28.0922 30.3402C28.7873 30.3843 33.3254 30.5383 38.7224 27.551C39.2086 27.2819 39.3543 26.6596 39.0996 26.1656C37.5425 23.1454 37.2059 19.6041 37.3334 16.3333C37.3334 11.1767 33.1567 7 28 7H27.86ZM20.6734 31.08C14 32.5033 9.33337 35.8167 9.33337 39.6667V48C9.33337 48.5523 9.78109 49 10.3334 49H28L21.3 40.0667C21.1112 39.8149 20.8148 39.6667 20.5 39.6667H15.1667M28 49L31.7566 33.826C31.9371 33.0967 31.2726 32.4088 30.5273 32.5034C29.8323 32.5917 28.9596 32.6667 28 32.6667C25.6667 32.6667 23.8467 32.2233 23.8467 32.2233M28 49H45.6667C46.219 49 46.6667 48.5523 46.6667 48V39.6667C46.6667 36.281 43.0577 33.3103 37.6488 31.675C36.7983 31.4179 36.1411 32.35 36.6208 33.0979L39.8459 38.1268C40.2727 38.7924 39.7948 39.6667 39.0041 39.6667H35.5C35.1853 39.6667 34.8889 39.8149 34.7 40.0667L28 49Z" fill="white"/>
</svg>
