<svg width="56" height="56" viewBox="0 0 56 56" fill="none" xmlns="http://www.w3.org/2000/svg">
<path d="M50.6567 20.3233C53.5734 17.4066 52.2434 14 50.6567 12.3433L43.6567 5.34331C40.7167 2.42664 37.3334 3.75664 35.6767 5.34331L31.71 9.33331H25.6667C21.2334 9.33331 18.6667 11.6666 17.36 14.35L7.00004 24.71V34.0433L5.34337 35.6766C2.4267 38.6166 3.7567 42 5.34337 43.6566L12.3434 50.6566C13.6034 51.9166 14.9567 52.3833 16.24 52.3833C17.8967 52.3833 19.4134 51.5666 20.3234 50.6566L26.6234 44.3333H35C38.9667 44.3333 40.9734 41.86 41.6967 39.4333C44.3334 38.7333 45.78 36.7266 46.3634 34.7666C49.98 33.8333 51.3334 30.4033 51.3334 28V21H49.9567L50.6567 20.3233ZM46.6667 28C46.6667 29.05 46.2234 30.3333 44.3334 30.3333H42V32.6666C42 33.7166 41.5567 35 39.6667 35H37.3334V37.3333C37.3334 38.3833 36.89 39.6666 35 39.6666H24.71L17.0567 47.32C16.3334 47.9966 15.9134 47.6 15.6567 47.3433L8.68004 40.39C8.00337 39.6666 8.40004 39.2466 8.6567 38.99L11.6667 35.9566V26.6233L16.3334 21.9566V25.6666C16.3334 28.49 18.2 32.6666 23.3334 32.6666C28.4667 32.6666 30.3334 28.49 30.3334 25.6666H46.6667V28ZM47.3434 17.01L43.3767 21H25.6667V25.6666C25.6667 26.7166 25.2234 28 23.3334 28C21.4434 28 21 26.7166 21 25.6666V18.6666C21 17.5933 21.3967 14 25.6667 14H33.6234L38.9434 8.67998C39.6667 8.00331 40.0867 8.39998 40.3434 8.65664L47.32 15.61C47.9967 16.3333 47.6 16.7533 47.3434 17.01Z" fill="white"/>
</svg>
