<svg width="56" height="56" viewBox="0 0 56 56" fill="none" xmlns="http://www.w3.org/2000/svg">
<path d="M25.6666 4.66669C30.1995 4.66599 34.5778 6.31473 37.9843 9.30521C41.3909 12.2957 43.5928 16.4235 44.1793 20.9184L49.4293 29.176C49.7746 29.7197 49.7046 30.5294 48.9043 30.8747L44.3333 32.83V39.6667C44.3333 40.9044 43.8416 42.0914 42.9664 42.9665C42.0913 43.8417 40.9043 44.3334 39.6666 44.3334H35.0023L34.9999 51.3334H13.9999V42.714C13.9999 39.9607 12.9826 37.3544 11.0949 35.0024C8.89624 32.2571 7.51788 28.9465 7.11868 25.452C6.71948 21.9575 7.31568 18.4214 8.83858 15.251C10.3615 12.0805 12.7491 9.40489 15.7264 7.53229C18.7036 5.65969 22.1494 4.66633 25.6666 4.66669ZM24.4299 18.1137C23.66 17.3697 22.6286 16.9579 21.5579 16.967C20.4873 16.9761 19.4631 17.4053 18.7058 18.1623C17.9486 18.9192 17.5189 19.9433 17.5094 21.0139C17.4999 22.0845 17.9113 23.1161 18.6549 23.8864L25.6666 30.9004L32.6783 23.8864C33.0682 23.5096 33.3792 23.059 33.5931 22.5607C33.807 22.0625 33.9195 21.5267 33.9241 20.9845C33.9287 20.4423 33.8253 19.9046 33.6199 19.4029C33.4145 18.9011 33.1112 18.4452 32.7277 18.0619C32.3442 17.6786 31.8883 17.3755 31.3864 17.1703C30.8845 16.9651 30.3468 16.8618 29.8046 16.8667C29.2624 16.8715 28.7267 16.9842 28.2285 17.1983C27.7304 17.4124 27.2799 17.7236 26.9033 18.1137L25.6666 19.3504L24.4299 18.1137Z" fill="white"/>
</svg>
