<svg width="56" height="56" viewBox="0 0 56 56" fill="none" xmlns="http://www.w3.org/2000/svg">
<path d="M22.7406 9.17469L9.18398 22.68C8.49162 23.3683 7.94216 24.1867 7.56722 25.0881C7.19229 25.9895 6.99927 26.9561 6.99927 27.9324C6.99927 28.9086 7.19229 29.8753 7.56722 30.7767C7.94216 31.678 8.49162 32.4964 9.18398 33.1847C10.5852 34.5782 12.4811 35.3604 14.4573 35.3604C16.4335 35.3604 18.3294 34.5782 19.7306 33.1847L33.2873 19.6817C33.9794 18.9933 34.5286 18.1748 34.9034 17.2735C35.2781 16.3721 35.4711 15.4055 35.4711 14.4294C35.4711 13.4532 35.2781 12.4866 34.9034 11.5853C34.5286 10.6839 33.9794 9.86546 33.2873 9.17703C31.8861 7.78351 29.9902 7.00128 28.014 7.00128C26.0378 7.00128 24.1419 7.78351 22.7406 9.17703M36.2693 22.8177L22.7126 36.3207C22.0206 37.0091 21.4714 37.8276 21.0966 38.7289C20.7218 39.6303 20.5289 40.5969 20.5289 41.573C20.5289 42.5492 20.7218 43.5158 21.0966 44.4171C21.4714 45.3185 22.0206 46.1369 22.7126 46.8254C24.1139 48.2189 26.0098 49.0011 27.986 49.0011C29.9622 49.0011 31.8581 48.2189 33.2593 46.8254L46.816 33.3224C47.5081 32.6339 48.0573 31.8155 48.432 30.9141C48.8068 30.0128 48.9997 29.0462 48.9997 28.07C48.9997 27.0939 48.8068 26.1273 48.432 25.2259C48.0573 24.3245 47.5081 23.5061 46.816 22.8177C45.4147 21.4242 43.5189 20.6419 41.5426 20.6419C39.5664 20.6419 37.6706 21.4242 36.2693 22.8177Z" fill="white"/>
</svg>
